<svg width="16" height="13" viewBox="0 0 16 13" fill="none" xmlns="http://www.w3.org/2000/svg">
<path d="M13.5447 1.70586C12.5249 1.27095 11.4313 0.950525 10.2879 0.767005C10.2671 0.763463 10.2463 0.772315 10.2356 0.790018C10.0949 1.02251 9.93915 1.32583 9.83006 1.56423C8.60027 1.3931 7.37679 1.3931 6.17221 1.56423C6.0631 1.32053 5.90166 1.02251 5.76038 0.790018C5.74966 0.772905 5.72886 0.764054 5.70803 0.767005C4.56527 0.949939 3.47171 1.27036 2.45129 1.70586C2.44246 1.7094 2.43488 1.71531 2.42986 1.72297C0.355594 4.60327 -0.212633 7.41276 0.0661201 10.1874C0.0673814 10.201 0.0755799 10.214 0.086932 10.2222C1.45547 11.1564 2.78114 11.7235 4.08219 12.0994C4.10301 12.1053 4.12507 12.0982 4.13832 12.0822C4.44608 11.6916 4.72043 11.2797 4.95565 10.8466C4.96953 10.8212 4.95628 10.7911 4.92791 10.7811C4.49275 10.6276 4.0784 10.4406 3.67982 10.2281C3.64829 10.211 3.64577 10.1691 3.67477 10.1491C3.75865 10.0906 3.84255 10.0299 3.92264 9.96849C3.93713 9.95728 3.95732 9.95491 3.97435 9.96199C6.59286 11.0732 9.4277 11.0732 12.0153 9.96199C12.0323 9.95433 12.0525 9.95669 12.0677 9.9679C12.1478 10.0293 12.2316 10.0906 12.3161 10.1491C12.3451 10.1691 12.3433 10.211 12.3117 10.2281C11.9131 10.4447 11.4988 10.6276 11.063 10.7805C11.0346 10.7905 11.022 10.8212 11.0359 10.8466C11.2762 11.2791 11.5505 11.691 11.8526 12.0817C11.8652 12.0982 11.8879 12.1053 11.9087 12.0994C13.2161 11.7235 14.5417 11.1564 15.9103 10.2222C15.9223 10.214 15.9298 10.2016 15.9311 10.188C16.2647 6.9802 15.3723 4.19374 13.5655 1.72356C13.5611 1.71531 13.5535 1.7094 13.5447 1.70586ZM5.34668 8.49795C4.55833 8.49795 3.90875 7.82524 3.90875 6.99909C3.90875 6.17294 4.54574 5.50023 5.34668 5.50023C6.15392 5.50023 6.79721 6.17885 6.78459 6.99909C6.78459 7.82524 6.14761 8.49795 5.34668 8.49795ZM10.6632 8.49795C9.87484 8.49795 9.22526 7.82524 9.22526 6.99909C9.22526 6.17294 9.86222 5.50023 10.6632 5.50023C11.4704 5.50023 12.1137 6.17885 12.1011 6.99909C12.1011 7.82524 11.4704 8.49795 10.6632 8.49795Z" fill="#176FC1"/>
</svg>
