<svg width="15" height="14" viewBox="0 0 15 14" fill="none" xmlns="http://www.w3.org/2000/svg">
<path d="M9.69043 3.03358C9.82981 3.23447 9.77091 3.50442 9.55892 3.6365C9.45361 3.70213 9.35452 3.77953 9.2644 3.86663C9.17446 3.95355 9.05547 3.99715 8.93639 3.99715C8.82034 3.99715 8.7042 3.95573 8.61478 3.87261C8.43364 3.70424 8.43083 3.42861 8.60844 3.25697C8.74433 3.12567 8.8943 3.00856 9.05422 2.90892C9.26627 2.77686 9.55108 2.83268 9.69043 3.03358ZM13.6844 8.18616C13.6382 8.23074 9.12805 12.5891 9.12805 12.5891C8.6937 13.0088 8.11549 13.24 7.5 13.24C6.88451 13.24 6.30631 13.0088 5.87195 12.5891L1.31565 8.18616C-0.438551 6.49103 -0.438551 3.7328 1.31565 2.03767C2.16827 1.21376 3.30251 0.76001 4.50949 0.76001C5.62283 0.76001 6.67439 1.14614 7.5 1.85268C8.32564 1.14614 9.37715 0.76001 10.4905 0.76001C11.6975 0.76001 12.8317 1.21376 13.6843 2.03764C15.4386 3.7328 15.4386 6.49103 13.6844 8.18616ZM13.0285 2.64733C12.35 1.99176 11.4487 1.63071 10.4905 1.63071C9.53232 1.63071 8.63097 1.99173 7.95257 2.6473C7.91823 2.68051 7.8874 2.72082 7.84427 2.75693C7.61357 2.95005 7.34308 2.94035 7.15577 2.75693C7.11573 2.71769 7.08181 2.68051 7.04746 2.6473C6.36903 1.99176 5.46772 1.63071 4.50949 1.63071C3.5513 1.63071 2.64998 1.99173 1.97155 2.6473C0.565225 4.00629 0.565225 6.21751 1.97155 7.5765C2.0134 7.61693 6.52785 11.9794 6.52785 11.9794C6.78802 12.2308 7.13327 12.3693 7.5 12.3693C7.86674 12.3693 8.21198 12.2308 8.47215 11.9794L13.0285 7.57653C14.4347 6.21754 14.4347 4.00632 13.0285 2.64733ZM12.3725 3.257C12.0978 2.99149 11.7763 2.79132 11.4172 2.66205C11.1801 2.57675 10.9147 2.68971 10.8247 2.91449C10.7346 3.13925 10.8538 3.39068 11.091 3.47603C11.3251 3.56026 11.5356 3.69171 11.7166 3.86666C12.4272 4.55329 12.4272 5.67054 11.7166 6.35717L10.105 7.91459C9.92731 8.08626 9.93012 8.3619 10.1113 8.53023C10.2007 8.61333 10.3168 8.65477 10.4329 8.65477C10.5519 8.65477 10.6709 8.61118 10.7608 8.52425L12.3725 6.96684C13.4309 5.94403 13.4309 4.2798 12.3725 3.257Z" fill="#176FC1"/>
</svg>
