<svg width="338" height="81" viewBox="0 0 338 81" fill="none" xmlns="http://www.w3.org/2000/svg">

<path d="M85.3159 39.1483C85.3159 32.4793 86.2586 27.7929 88.7863 24.7627C91.2922 21.7587 95.4747 20.25 102.313 20.25C109.151 20.25 113.369 21.7586 115.909 24.7654C118.468 27.796 119.444 32.4825 119.444 39.1483C119.444 47.1133 118.465 52.4823 115.891 55.8684C113.35 59.21 109.147 60.75 102.313 60.75C95.4787 60.75 91.3109 59.21 88.8043 55.8711C86.262 52.485 85.3159 47.116 85.3159 39.1483ZM102.313 25.5434C97.0542 25.5434 94.0731 26.5722 92.4993 28.9812C91.7282 30.1615 91.336 31.6173 91.1299 33.3074C90.924 34.9967 90.8996 36.9728 90.8996 39.2162C90.8996 42.1686 90.9244 44.6543 91.1285 46.7107C91.3327 48.764 91.7199 50.4485 92.4829 51.7725C94.0544 54.4985 97.0626 55.4567 102.313 55.4567C107.564 55.4567 110.601 54.4982 112.207 51.7772C112.988 50.4539 113.393 48.7691 113.61 46.714C113.827 44.6563 113.86 42.1696 113.86 39.2162C113.86 36.9711 113.827 34.9944 113.608 33.3032C113.389 31.6112 112.979 30.1555 112.19 28.9761C110.583 26.5727 107.573 25.5434 102.313 25.5434Z"/>


<path d="M20.0791 59.8715V21.1285H27.7742L46.4789 53.9632V21.1285H52.0629V59.8715H43.8318L25.6629 27.9831V59.8715H20.0791Z"/>


<path d="M152.362 59.8715V21.1285H160.84L168.555 46.2554L176.27 21.1285H184.949V59.8715H179.432V29.0798L178.886 28.9967L172.347 51.492H165.27L158.492 28.9996L157.946 29.0798V59.8715H152.362Z"/>


<path d="M285.113 59.8715V21.1285H300.837C306.968 21.1285 311.093 22.8211 313.699 25.8426C316.32 28.88 317.499 33.3652 317.499 39.1483C317.499 47.2584 316.175 52.4053 313.513 55.5319C310.873 58.6329 306.805 59.8715 300.971 59.8715H285.113ZM301.172 26.084H290.697V54.916H301.172C304.878 54.916 307.64 53.9953 309.431 51.489C311.183 49.0374 311.915 45.1798 311.915 39.554C311.915 35.2205 311.192 31.8417 309.447 29.5402C307.676 27.2049 304.937 26.084 301.172 26.084Z"/>


<path d="M229.056 21.1285L218.378 59.804H224.124L233.773 26.084H236.155L245.803 59.804H251.549L240.872 21.1285H229.056Z"/>

</svg>
